<?xml version="1.0" encoding="iso-8859-1"?>
<!-- Uploaded to: SVG Repo, www.svgrepo.com, Generator: SVG Repo Mixer Tools -->
<svg fill="#000000" height="800px" width="800px" version="1.1" id="Layer_1" xmlns="http://www.w3.org/2000/svg" xmlns:xlink="http://www.w3.org/1999/xlink" 
	 viewBox="0 0 512 512" xml:space="preserve">
<g>
	<g>
		<path d="M444.597,62.041h-47.698L259.093,0.658c-1.97-0.877-4.218-0.877-6.189,0L115.099,62.041H67.402
			c-11.775,0-21.355,9.58-21.355,21.355v0.976c0,11.775,9.579,21.355,21.355,21.355h33.76v348.279c0,3.25,2.066,6.142,5.141,7.194
			l147.234,50.391c0.798,0.274,1.63,0.41,2.463,0.41c0.832,0,1.665-0.137,2.463-0.41L405.698,461.2
			c3.075-1.052,5.141-3.944,5.141-7.194V105.728h33.759c11.775,0,21.355-9.58,21.355-21.355v-0.976
			C465.952,71.621,456.372,62.041,444.597,62.041z M255.999,15.927l103.525,46.113H152.475L255.999,15.927z M395.63,448.571
			l-139.631,47.788L116.37,448.571V105.728h279.26V448.571z M450.744,84.373c0,3.389-2.758,6.147-6.147,6.147h-41.363H108.766
			H67.402c-3.389,0-6.147-2.758-6.147-6.147v-0.976c0-3.389,2.758-6.147,6.147-6.147h377.196c3.39,0,6.147,2.758,6.147,6.147V84.373
			z"/>
	</g>
</g>
<g>
	<g>
		<path d="M368.5,138.442H143.499c-4.2,0-7.604,3.405-7.604,7.604v271.925c0,3.25,2.066,6.142,5.142,7.194l112.499,38.503
			c0.798,0.274,1.63,0.41,2.463,0.41c0.832,0,1.665-0.137,2.463-0.41l112.5-38.503c3.075-1.052,5.141-3.944,5.141-7.194V146.046
			C376.104,141.846,372.701,138.442,368.5,138.442z M360.895,412.536l-104.896,35.901l-104.896-35.901V153.65h209.792V412.536z"/>
	</g>
</g>
<g>
	<g>
		<path d="M255.999,174.21c-28.803,0-52.236,23.433-52.236,52.236s23.433,52.237,52.236,52.237
			c28.804,0,52.237-23.433,52.237-52.237S284.803,174.21,255.999,174.21z M255.999,263.474c-20.417,0-37.028-16.611-37.028-37.029
			s16.611-37.028,37.028-37.028c20.418,0,37.029,16.611,37.029,37.028S276.416,263.474,255.999,263.474z"/>
	</g>
</g>
<g>
	<g>
		<path d="M321.007,299.622H190.991c-12.446,0-22.572,10.125-22.572,22.571v1.063c0,12.446,10.125,22.571,22.572,22.571h130.016
			c12.445,0,22.571-10.125,22.571-22.571v-1.063C343.579,309.748,333.453,299.622,321.007,299.622z M328.371,323.255
			c0,4.061-3.303,7.364-7.364,7.364H190.991c-4.06,0.001-7.365-3.303-7.365-7.364v-1.063c0-4.06,3.304-7.364,7.365-7.364h130.016
			c4.06,0,7.364,3.303,7.364,7.364V323.255z"/>
	</g>
</g>
<g>
	<g>
		<path d="M302.263,359.96h-92.527c-12.446,0-22.573,10.125-22.573,22.571v1.063c0,12.446,10.125,22.571,22.573,22.571h92.527
			c12.446,0,22.573-10.126,22.573-22.571v-1.063C324.836,370.085,314.71,359.96,302.263,359.96z M309.629,383.594
			c0,4.061-3.304,7.364-7.365,7.364h-92.529c-4.06,0-7.364-3.304-7.364-7.364v-1.063c0-4.06,3.304-7.364,7.365-7.364h92.527
			c4.06,0,7.365,3.303,7.365,7.364V383.594z"/>
	</g>
</g>
</svg>