<?xml version="1.0" encoding="iso-8859-1"?>
<!-- Uploaded to: SVG Repo, www.svgrepo.com, Generator: SVG Repo Mixer Tools -->
<svg fill="#000000" height="800px" width="800px" version="1.1" id="Layer_1" xmlns="http://www.w3.org/2000/svg" xmlns:xlink="http://www.w3.org/1999/xlink" 
	 viewBox="0 0 512.001 512.001" xml:space="preserve">
<g>
	<g>
		<path d="M488.408,96.395H23.591C10.583,96.395,0,106.978,0,119.985v272.03c0,13.008,10.583,23.591,23.591,23.591h464.819
			c13.008,0,23.592-10.583,23.592-23.591v-272.03C512,106.978,501.417,96.395,488.408,96.395z M496.793,392.015L496.793,392.015
			c-0.001,4.622-3.761,8.383-8.385,8.383H23.591c-4.622,0-8.383-3.76-8.383-8.383V119.985c0-4.622,3.76-8.383,8.383-8.383h464.819
			c4.623,0,8.384,3.76,8.384,8.383V392.015z"/>
	</g>
</g>
<g>
	<g>
		<path d="M433.652,162.843H239.49c-13.104,0-23.765,10.661-23.765,23.765c0,13.104,10.662,23.765,23.765,23.765h194.162
			c13.104,0,23.765-10.661,23.765-23.765C457.417,173.504,446.755,162.843,433.652,162.843z M433.652,195.165H239.49
			c-4.719,0-8.557-3.839-8.557-8.557s3.839-8.557,8.557-8.557h194.162c4.719,0,8.557,3.839,8.557,8.557
			S438.37,195.165,433.652,195.165z"/>
	</g>
</g>
<g>
	<g>
		<path d="M433.652,231.855H239.49c-13.104,0-23.765,10.661-23.765,23.765c0,13.104,10.662,23.765,23.765,23.765h194.162
			c13.104,0,23.765-10.661,23.765-23.765C457.417,242.516,446.755,231.855,433.652,231.855z M433.652,264.177H239.49
			c-4.719,0-8.557-3.839-8.557-8.557c0-4.719,3.839-8.557,8.557-8.557h194.162c4.719,0,8.557,3.839,8.557,8.557
			C442.209,260.338,438.37,264.177,433.652,264.177z"/>
	</g>
</g>
<g>
	<g>
		<path d="M362.128,299.742H239.49c-13.104,0-23.765,10.661-23.765,23.765c0,13.104,10.662,23.765,23.765,23.765h122.638
			c13.104,0,23.765-10.661,23.765-23.765C385.893,310.403,375.232,299.742,362.128,299.742z M362.128,332.063H239.49
			c-4.719,0-8.557-3.839-8.557-8.557c0-4.718,3.839-8.557,8.557-8.557h122.638c4.719,0,8.557,3.839,8.557,8.557
			C370.685,328.224,366.846,332.063,362.128,332.063z"/>
	</g>
</g>
<g>
	<g>
		<path d="M195.405,204.75c-1.912-2.913-2.427-6.495-1.412-9.828c3.95-12.972-2.415-26.91-14.805-32.419
			c-3.185-1.415-5.555-4.151-6.502-7.504c-3.691-13.047-16.571-21.335-29.981-19.268c-3.446,0.532-6.917-0.489-9.527-2.797
			c-10.159-8.982-25.479-8.982-35.639,0c-2.611,2.309-6.089,3.326-9.526,2.797c-13.41-2.063-26.291,6.221-29.982,19.269
			c-0.948,3.352-3.317,6.086-6.502,7.503c-12.39,5.51-18.755,19.447-14.805,32.419c1.015,3.334,0.5,6.916-1.413,9.827
			c-7.445,11.335-5.264,26.5,5.072,35.277c2.655,2.256,4.16,5.547,4.123,9.031c-0.093,9.425,4.729,17.89,12.19,22.78v98.608
			c0,2.41,1.143,4.678,3.08,6.112c1.938,1.435,4.439,1.866,6.744,1.162l31.388-9.583c0.019-0.006,0.039-0.011,0.058-0.017
			l17.393-5.311l48.838,14.911c0.729,0.222,1.476,0.332,2.22,0.332c1.61,0,3.199-0.511,4.524-1.492
			c1.938-1.434,3.08-3.701,3.08-6.112V271.84c7.461-4.891,12.284-13.356,12.19-22.781c-0.035-3.484,1.468-6.776,4.123-9.03
			C200.669,231.251,202.849,216.084,195.405,204.75z M88.073,355.237l-16.171,4.938v-82.838c1.729,0.945,3.216,2.311,4.294,4.024
			c2.94,4.677,7.123,8.164,11.877,10.265V355.237z M127.738,350.688l-10.161-3.102c-1.448-0.441-2.994-0.441-4.442,0l-9.855,3.009
			v-56.996c2.412-0.389,4.805-1.115,7.111-2.196c3.154-1.479,6.775-1.479,9.929,0c2.405,1.127,4.902,1.86,7.417,2.237V350.688z
			 M158.81,360.175l-15.864-4.844v-63.846c4.626-2.116,8.694-5.549,11.57-10.123c1.078-1.714,2.566-3.08,4.294-4.025V360.175z
			 M180.489,228.435c-6.11,5.188-9.569,12.76-9.488,20.775c0.06,5.895-4.303,10.928-10.146,11.709
			c-7.944,1.06-14.946,5.561-19.214,12.348c-3.139,4.991-9.528,6.867-14.865,4.365c-3.629-1.701-7.525-2.552-11.42-2.552
			s-7.792,0.851-11.42,2.552c-5.341,2.504-11.729,0.625-14.865-4.366c-4.267-6.786-11.27-11.286-19.214-12.347
			c-5.843-0.781-10.205-5.815-10.146-11.709c0.08-8.015-3.378-15.587-9.488-20.775c-4.493-3.816-5.441-10.409-2.205-15.337
			c4.4-6.699,5.584-14.938,3.25-22.606c-1.716-5.639,1.049-11.698,6.437-14.093c7.324-3.258,12.776-9.549,14.955-17.26
			c1.605-5.674,7.216-9.272,13.034-8.378c7.927,1.22,15.909-1.126,21.914-6.435c4.415-3.904,11.077-3.904,15.493,0
			c6.004,5.308,13.99,7.654,21.915,6.434c5.833-0.898,11.428,2.705,13.033,8.377c2.18,7.712,7.631,14.003,14.956,17.261
			c5.387,2.395,8.153,8.454,6.437,14.094c-2.334,7.667-1.15,15.906,3.25,22.605C185.931,218.026,184.982,224.619,180.489,228.435z"
			/>
	</g>
</g>
<g>
	<g>
		<path d="M115.356,153.418c-31.237,0-56.65,25.412-56.65,56.649s25.412,56.65,56.65,56.65s56.649-25.412,56.649-56.65
			S146.593,153.418,115.356,153.418z M115.356,251.509c-22.85,0-41.442-18.59-41.442-41.442s18.591-41.442,41.442-41.442
			s41.442,18.59,41.442,41.442S138.207,251.509,115.356,251.509z"/>
	</g>
</g>
</svg>