<?xml version="1.0" encoding="iso-8859-1"?>
<!-- Uploaded to: SVG Repo, www.svgrepo.com, Generator: SVG Repo Mixer Tools -->
<svg fill="#000000" height="800px" width="800px" version="1.1" id="Layer_1" xmlns="http://www.w3.org/2000/svg" xmlns:xlink="http://www.w3.org/1999/xlink" 
	 viewBox="0 0 511.999 511.999" xml:space="preserve">
<g>
	<g>
		<path d="M466.102,443.774h-55.575V20.195C410.526,9.06,401.466,0,390.331,0H58.481C47.345,0,38.286,9.06,38.286,20.195v431.189
			c0,32.331,25.445,58.829,57.361,60.526c0.363,0.053,0.731,0.089,1.109,0.089c0.231,0,0.46-0.001,0.69-0.004
			c0.081,0.003,0.162,0.004,0.245,0.004h1.211h3.627h310.568c33.424,0,60.616-27.193,60.616-60.615
			C473.713,447.181,470.305,443.774,466.102,443.774z M97.829,496.751c-24.535-0.573-44.32-20.696-44.32-45.367V20.195
			c0-2.742,2.231-4.974,4.973-4.974h331.85c2.742,0,4.974,2.232,4.974,4.974v423.578H149.761c-4.204,0-7.611,3.407-7.611,7.611
			C142.15,476.055,122.364,496.177,97.829,496.751z M413.096,496.778h-276.21c10.764-9.528,18.127-22.813,20.011-37.782h300.956
			C454.223,480.415,435.534,496.778,413.096,496.778z"/>
	</g>
</g>
<g>
	<g>
		<path d="M298.082,205.393c-43.039,0-78.053,35.015-78.053,78.052c0,26.051,12.841,49.145,32.512,63.331v71.846
			c0,2.667,1.396,5.139,3.681,6.518c2.282,1.376,5.122,1.457,7.481,0.214l34.379-18.134l34.379,18.134
			c1.113,0.587,2.333,0.879,3.551,0.879c1.363,0,2.725-0.365,3.93-1.093c2.284-1.378,3.681-3.851,3.681-6.518v-71.846
			c19.671-14.186,32.511-37.28,32.511-63.331C376.134,240.408,341.119,205.393,298.082,205.393z M328.401,406.002L328.401,406.002
			l-26.768-14.12c-2.221-1.171-4.88-1.171-7.102,0l-26.768,14.12v-50.633c9.326,3.947,19.572,6.13,30.319,6.13
			s20.993-2.184,30.319-6.13V406.002z M298.082,346.277c-34.645,0-62.831-28.186-62.831-62.831s28.186-62.83,62.831-62.83
			s62.83,28.185,62.83,62.83S332.727,346.277,298.082,346.277z"/>
	</g>
</g>
<g>
	<g>
		<path d="M298.082,234.089c-27.215,0-49.357,22.141-49.357,49.357c0,27.216,22.141,49.357,49.357,49.357
			c27.214,0,49.356-22.141,49.356-49.357C347.437,256.23,325.296,234.089,298.082,234.089z M298.082,317.58
			c-18.821,0-34.135-15.313-34.135-34.135c0-18.821,15.313-34.135,34.135-34.135s34.134,15.313,34.134,34.135
			C332.215,302.267,316.903,317.58,298.082,317.58z"/>
	</g>
</g>
<g>
	<g>
		<path d="M344.69,49.894H109.986c-12.612,0-22.872,10.26-22.872,22.87v0.661c0,12.61,10.26,22.87,22.872,22.87H344.69
			c12.612,0,22.872-10.26,22.872-22.87v-0.661C367.562,60.153,357.302,49.894,344.69,49.894z M352.34,73.424
			c0,4.218-3.432,7.649-7.65,7.649H109.986c-4.217,0-7.65-3.431-7.65-7.649v-0.661c0-4.218,3.432-7.649,7.65-7.649H344.69
			c4.218,0,7.65,3.431,7.65,7.649V73.424z"/>
	</g>
</g>
<g>
	<g>
		<path d="M344.69,109.661H109.986c-12.612,0-22.872,10.26-22.872,22.871v0.66c0,12.612,10.26,22.871,22.872,22.871H344.69
			c12.612,0,22.872-10.26,22.872-22.871v-0.66C367.562,119.921,357.302,109.661,344.69,109.661z M352.34,133.191
			c0,4.218-3.432,7.65-7.65,7.65H109.986c-4.217,0-7.65-3.432-7.65-7.65v-0.66c0-4.217,3.432-7.648,7.65-7.648H344.69
			c4.218,0,7.65,3.431,7.65,7.648V133.191z"/>
	</g>
</g>
<g>
	<g>
		<path d="M204.514,169.43h-92.16c-12.612,0-22.871,10.26-22.871,22.87v0.66c0,12.612,10.26,22.872,22.871,22.872h92.16
			c12.612,0,22.872-10.261,22.872-22.872v-0.66C227.386,179.689,217.126,169.43,204.514,169.43z M212.164,192.96
			c0,4.218-3.432,7.65-7.65,7.65h-92.16c-4.217,0-7.65-3.432-7.65-7.65v-0.66c0-4.217,3.432-7.648,7.65-7.648h92.16
			c4.217,0,7.65,3.431,7.65,7.648V192.96z"/>
	</g>
</g>
</svg>