<?xml version="1.0" encoding="iso-8859-1"?>
<!-- Uploaded to: SVG Repo, www.svgrepo.com, Generator: SVG Repo Mixer Tools -->
<svg fill="#000000" height="800px" width="800px" version="1.1" id="Layer_1" xmlns="http://www.w3.org/2000/svg" xmlns:xlink="http://www.w3.org/1999/xlink" 
	 viewBox="0 0 512 512" xml:space="preserve">
<g>
	<g>
		<path d="M511.922,166.889c-0.001-2.59-1.32-5.001-3.499-6.398s-4.921-1.586-7.275-0.508l-52.038,23.91l-55.232-55.232
			c-2.967-2.967-7.78-2.967-10.749,0l-50.516,50.516L262.365,71.526c-1.403-2.151-3.797-3.447-6.366-3.447
			c-2.568,0-4.962,1.296-6.365,3.447l-70.352,107.812l-50.677-50.677c-2.968-2.967-7.781-2.967-10.749,0l-55.138,55.138
			l-51.812-23.815c-2.352-1.081-5.094-0.89-7.275,0.506c-2.18,1.397-3.499,3.808-3.502,6.397L0,436.316
			c-0.001,2.017,0.8,3.951,2.225,5.377c1.426,1.426,3.36,2.228,5.376,2.228h496.798c2.016,0,3.949-0.801,5.375-2.227
			c1.425-1.426,2.226-3.36,2.226-5.376L511.922,166.889z M388.502,144.785l45.876,45.876l-72.527,33.323l-20.751-31.799
			L388.502,144.785z M123.23,144.785l47.563,47.563l-20.644,31.637l-72.701-33.416L123.23,144.785z M15.205,428.719l0.121-249.972
			l134.431,61.788c3.423,1.576,7.481,0.401,9.541-2.753l27.155-41.614c0.343-0.42,0.631-0.868,0.871-1.335L256,89.587
			l67.952,104.136c0.359,1.103,0.97,2.141,1.846,3.018c0.096,0.096,0.201,0.181,0.301,0.272l26.604,40.77
			c2.059,3.154,6.115,4.327,9.54,2.754l134.482-61.79l0.072,249.973H15.205z"/>
	</g>
</g>
<g>
	<g>
		<path d="M118.312,324.685l-31.137-44.482l-0.076-0.108c-0.027-0.039-0.061-0.073-0.088-0.111c-0.13-0.177-0.265-0.349-0.408-0.514
			c-0.061-0.07-0.123-0.137-0.185-0.204c-0.135-0.144-0.275-0.282-0.421-0.414c-0.064-0.059-0.127-0.119-0.193-0.175
			c-0.192-0.163-0.39-0.318-0.598-0.462c-0.019-0.014-0.038-0.029-0.058-0.044c-0.235-0.161-0.481-0.306-0.736-0.441
			c-0.046-0.023-0.092-0.044-0.139-0.067c-0.206-0.103-0.416-0.198-0.631-0.283c-0.071-0.027-0.142-0.053-0.214-0.078
			c-0.197-0.07-0.396-0.133-0.6-0.186c-0.079-0.021-0.158-0.043-0.239-0.062c-0.207-0.048-0.417-0.085-0.628-0.116
			c-0.075-0.011-0.15-0.025-0.226-0.034c-0.284-0.032-0.572-0.053-0.864-0.053c-0.293,0-0.581,0.02-0.865,0.053
			c-0.076,0.009-0.15,0.023-0.226,0.034c-0.212,0.03-0.422,0.068-0.628,0.116c-0.08,0.018-0.159,0.041-0.239,0.062
			c-0.204,0.054-0.403,0.117-0.6,0.186c-0.072,0.025-0.143,0.051-0.214,0.078c-0.216,0.084-0.426,0.179-0.631,0.283
			c-0.046,0.023-0.093,0.043-0.139,0.067c-0.253,0.134-0.5,0.28-0.736,0.441c-0.02,0.013-0.039,0.029-0.058,0.044
			c-0.208,0.144-0.406,0.299-0.598,0.462c-0.066,0.057-0.129,0.117-0.193,0.175c-0.145,0.133-0.286,0.271-0.421,0.414
			c-0.063,0.067-0.125,0.134-0.185,0.204c-0.144,0.165-0.279,0.336-0.408,0.514c-0.028,0.039-0.061,0.072-0.088,0.111l-0.076,0.108
			l-31.137,44.482c-1.832,2.617-1.832,6.101,0,8.718l31.137,44.482l0.076,0.108c0.027,0.04,0.061,0.073,0.088,0.112
			c0.13,0.177,0.265,0.349,0.408,0.514c0.061,0.07,0.123,0.137,0.185,0.204c0.135,0.144,0.275,0.282,0.421,0.414
			c0.064,0.059,0.127,0.119,0.193,0.175c0.192,0.163,0.39,0.318,0.598,0.462c0.019,0.014,0.037,0.029,0.058,0.044
			c0.235,0.161,0.481,0.306,0.736,0.44c0.046,0.024,0.093,0.044,0.139,0.067c0.206,0.103,0.416,0.198,0.63,0.282
			c0.071,0.028,0.143,0.053,0.215,0.079c0.197,0.07,0.396,0.133,0.6,0.186c0.079,0.021,0.158,0.043,0.239,0.062
			c0.207,0.048,0.417,0.085,0.628,0.116c0.075,0.011,0.15,0.025,0.226,0.034c0.284,0.032,0.572,0.053,0.865,0.053
			c0.293,0,0.581-0.02,0.864-0.053c0.076-0.009,0.15-0.023,0.226-0.034c0.212-0.03,0.422-0.068,0.628-0.116
			c0.08-0.018,0.159-0.041,0.239-0.062c0.204-0.054,0.403-0.117,0.6-0.186c0.072-0.025,0.144-0.051,0.215-0.079
			c0.216-0.084,0.426-0.179,0.63-0.282c0.047-0.023,0.093-0.043,0.139-0.067c0.253-0.134,0.5-0.28,0.736-0.44
			c0.02-0.013,0.039-0.029,0.058-0.044c0.208-0.144,0.406-0.299,0.598-0.462c0.066-0.057,0.129-0.117,0.193-0.175
			c0.145-0.133,0.286-0.271,0.421-0.414c0.063-0.067,0.125-0.134,0.185-0.204c0.144-0.165,0.279-0.336,0.408-0.514
			c0.028-0.039,0.061-0.072,0.088-0.112l0.076-0.108l31.137-44.482C120.144,330.786,120.144,327.302,118.312,324.685z
			 M73.27,349.522l-14.335-20.478l14.335-20.478V349.522z M88.472,349.521v-40.955l14.334,20.478L88.472,349.521z"/>
	</g>
</g>
<g>
	<g>
		<path d="M235.082,324.685l-31.213-44.59c-1.422-2.032-3.747-3.242-6.227-3.242s-4.805,1.21-6.227,3.242l-31.213,44.59
			c-1.832,2.617-1.832,6.101,0,8.718l31.213,44.59c1.422,2.032,3.747,3.242,6.227,3.242s4.805-1.21,6.227-3.242l31.213-44.59
			C236.915,330.786,236.915,327.302,235.082,324.685z M190.041,349.521l-14.334-20.478l14.334-20.477V349.521z M205.243,349.521
			v-40.955l14.334,20.478L205.243,349.521z"/>
	</g>
</g>
<g>
	<g>
		<path d="M351.854,324.685l-31.213-44.59c-1.422-2.032-3.747-3.242-6.227-3.242c-2.48,0-4.805,1.21-6.227,3.242l-31.213,44.59
			c-1.832,2.617-1.832,6.101,0,8.718l31.213,44.59c1.422,2.032,3.747,3.242,6.227,3.242c2.48,0,4.805-1.21,6.227-3.242l31.213-44.59
			C353.686,330.786,353.686,327.302,351.854,324.685z M306.813,349.521l-14.334-20.478l14.334-20.477V349.521z M322.015,349.521
			v-40.955l14.334,20.478L322.015,349.521z"/>
	</g>
</g>
<g>
	<g>
		<path d="M468.621,324.685l-31.133-44.482l-0.076-0.108c-0.027-0.039-0.061-0.073-0.088-0.111c-0.13-0.177-0.264-0.349-0.408-0.514
			c-0.061-0.07-0.123-0.137-0.185-0.204c-0.135-0.144-0.275-0.282-0.421-0.414c-0.064-0.059-0.127-0.119-0.193-0.175
			c-0.192-0.163-0.39-0.318-0.598-0.462c-0.019-0.014-0.037-0.029-0.058-0.044c-0.235-0.161-0.481-0.306-0.736-0.441
			c-0.046-0.023-0.092-0.044-0.139-0.067c-0.206-0.103-0.416-0.198-0.631-0.283c-0.071-0.027-0.142-0.053-0.214-0.078
			c-0.197-0.07-0.396-0.133-0.6-0.186c-0.079-0.021-0.158-0.043-0.239-0.062c-0.207-0.048-0.417-0.085-0.628-0.116
			c-0.075-0.011-0.15-0.025-0.226-0.034c-0.284-0.032-0.572-0.053-0.864-0.053c-0.293,0-0.581,0.02-0.865,0.053
			c-0.076,0.009-0.15,0.023-0.226,0.034c-0.212,0.03-0.422,0.068-0.628,0.116c-0.08,0.018-0.159,0.041-0.239,0.062
			c-0.204,0.054-0.403,0.117-0.6,0.186c-0.072,0.025-0.143,0.051-0.214,0.078c-0.216,0.084-0.426,0.179-0.631,0.283
			c-0.046,0.023-0.093,0.043-0.139,0.067c-0.253,0.134-0.5,0.28-0.736,0.441c-0.02,0.013-0.039,0.029-0.058,0.044
			c-0.208,0.144-0.406,0.299-0.598,0.462c-0.066,0.057-0.129,0.117-0.193,0.175c-0.145,0.133-0.286,0.271-0.421,0.414
			c-0.063,0.067-0.125,0.134-0.185,0.204c-0.144,0.165-0.279,0.336-0.408,0.514c-0.028,0.039-0.061,0.072-0.088,0.111l-0.076,0.108
			l-31.137,44.482c-1.832,2.617-1.832,6.101,0,8.718l31.213,44.59c1.422,2.032,3.747,3.242,6.227,3.242
			c2.48,0,4.805-1.21,6.227-3.242l31.213-44.59C470.453,330.786,470.453,327.302,468.621,324.685z M423.583,349.521l-14.334-20.478
			l14.334-20.477V349.521z M438.785,349.522v-40.956l14.335,20.478L438.785,349.522z"/>
	</g>
</g>
<g>
	<g>
		<path d="M256,156.565c-19.189,0-34.801,15.611-34.801,34.801c0,19.19,15.611,34.801,34.801,34.801s34.801-15.611,34.801-34.801
			C290.801,172.176,275.189,156.565,256,156.565z M256,210.965c-10.807,0-19.599-8.793-19.599-19.599
			c0-10.807,8.792-19.599,19.599-19.599s19.599,8.793,19.599,19.599C275.599,202.172,266.806,210.965,256,210.965z"/>
	</g>
</g>
</svg>