<?xml version="1.0" encoding="iso-8859-1"?>
<!-- Uploaded to: SVG Repo, www.svgrepo.com, Generator: SVG Repo Mixer Tools -->
<svg fill="#000000" height="800px" width="800px" version="1.1" id="Layer_1" xmlns="http://www.w3.org/2000/svg" xmlns:xlink="http://www.w3.org/1999/xlink" 
	 viewBox="0 0 512 512" xml:space="preserve">
<g>
	<g>
		<path d="M507.315,287.296c-2.837-1.175-6.098-0.524-8.271,1.645c-21.091,21.091-50.54,38.766-85.897,51.944l-26.267-63.008
			c-1.179-2.827-3.942-4.669-7.005-4.669s-5.826,1.842-7.005,4.669l-30.566,73.322l-36.081-65.863
			c-0.039-0.072-0.081-0.144-0.122-0.215c-12.459-21.085-19.043-45.174-19.043-69.662v-84.351
			c15.877-10.24,26.418-28.069,26.418-48.325c0-31.693-25.784-57.477-57.478-57.477c-31.692,0-57.477,25.784-57.477,57.477
			c0,20.256,10.542,38.085,26.417,48.325v84.352c0,24.49-6.585,48.579-19.043,69.662c-0.041,0.071-0.083,0.143-0.122,0.215
			l-36.025,65.765l-30.526-73.225c-1.179-2.827-3.942-4.669-7.005-4.669s-5.826,1.842-7.005,4.669l-26.279,63.038
			c-35.393-13.181-64.871-30.867-85.978-51.975c-2.171-2.17-5.435-2.821-8.271-1.645C1.849,288.47,0,291.238,0,294.307V398.76
			c0,2.013,0.799,3.943,2.222,5.366C53.924,455.828,148.794,486.694,256,486.694c107.205,0,202.076-30.867,253.777-82.568
			c1.423-1.423,2.222-3.353,2.222-5.366V294.307C512,291.238,510.151,288.47,507.315,287.296z M379.876,300.519l18.915,45.372
			c-13.456,4.365-27.663,8.103-42.489,11.177L379.876,300.519z M213.7,82.782c0-23.324,18.975-42.299,42.299-42.299
			c23.324,0,42.3,18.975,42.3,42.299c0,23.324-18.976,42.3-42.3,42.3C232.675,125.083,213.7,106.106,213.7,82.782z M132.218,300.519
			l23.583,56.571c-14.833-3.072-29.047-6.808-42.509-11.171L132.218,300.519z M256,471.517
			c-101.725,0-191.407-28.338-240.823-75.941V311.44c22.45,18.587,51.244,34.149,84.614,45.906c0.142,0.07,0.281,0.143,0.429,0.204
			c0.419,0.175,0.845,0.302,1.274,0.398c19.701,6.833,40.979,12.339,63.469,16.368c1.055,0.534,2.225,0.833,3.425,0.833
			c0.555,0,1.114-0.069,1.67-0.195c2.509-0.198,4.814-1.617,6.064-3.897l42.904-78.323c13.799-23.395,21.091-50.113,21.091-77.276
			v-77.448c5.048,1.454,10.371,2.249,15.881,2.249c5.51,0,10.834-0.795,15.881-2.249v77.448c0,27.161,7.292,53.88,21.091,77.276
			l42.906,78.322c1.271,2.319,3.632,3.746,6.191,3.905c0.544,0.121,1.093,0.186,1.636,0.186c1.217,0,2.403-0.309,3.47-0.858
			c22.378-4.016,43.555-9.493,63.171-16.286c0.514-0.096,1.026-0.245,1.528-0.454c0.241-0.1,0.474-0.211,0.698-0.333
			c33.215-11.743,61.883-27.258,84.251-45.777v84.138h0.001C447.406,443.179,357.725,471.517,256,471.517z"/>
	</g>
</g>
<g>
	<g>
		<path d="M302.578,371.525l-40.694-63.594c-0.012-0.018-0.026-0.034-0.038-0.053c-0.161-0.246-0.332-0.483-0.519-0.708
			c-0.025-0.03-0.053-0.057-0.079-0.086c-0.162-0.188-0.333-0.368-0.512-0.54c-0.065-0.063-0.132-0.121-0.199-0.181
			c-0.156-0.14-0.318-0.271-0.485-0.398c-0.066-0.05-0.13-0.1-0.196-0.147c-0.472-0.333-0.982-0.613-1.525-0.832
			c-0.055-0.022-0.111-0.04-0.167-0.061c-0.217-0.082-0.437-0.154-0.662-0.216c-0.079-0.021-0.158-0.041-0.237-0.061
			c-0.213-0.052-0.429-0.092-0.649-0.124c-0.079-0.012-0.157-0.026-0.236-0.036c-0.292-0.034-0.588-0.057-0.888-0.057
			s-0.597,0.022-0.888,0.057c-0.079,0.009-0.157,0.024-0.236,0.036c-0.22,0.032-0.436,0.074-0.649,0.124
			c-0.08,0.019-0.158,0.039-0.237,0.061c-0.225,0.062-0.445,0.134-0.662,0.216c-0.056,0.021-0.112,0.039-0.167,0.062
			c-0.542,0.22-1.053,0.5-1.525,0.832c-0.067,0.047-0.13,0.097-0.196,0.147c-0.167,0.126-0.329,0.258-0.485,0.398
			c-0.067,0.06-0.134,0.118-0.199,0.181c-0.179,0.172-0.35,0.351-0.512,0.54c-0.025,0.029-0.054,0.057-0.079,0.086
			c-0.187,0.225-0.358,0.462-0.519,0.708c-0.012,0.018-0.026,0.034-0.038,0.053l-40.693,63.593
			c-1.716,2.682-1.575,6.152,0.353,8.686l40.693,53.474c1.436,1.886,3.67,2.993,6.04,2.993c2.371,0,4.604-1.107,6.04-2.993
			l40.692-53.474C304.152,377.677,304.294,374.208,302.578,371.525z M247.904,406.586L224.05,375.24l23.853-37.278V406.586z
			 M263.081,406.585v-68.623l23.852,37.277L263.081,406.585z"/>
	</g>
</g>
</svg>