<?xml version="1.0" encoding="iso-8859-1"?>
<!-- Uploaded to: SVG Repo, www.svgrepo.com, Generator: SVG Repo Mixer Tools -->
<svg fill="#000000" version="1.1" id="Layer_1" xmlns="http://www.w3.org/2000/svg" xmlns:xlink="http://www.w3.org/1999/xlink" 
	 viewBox="0 0 496 496" xml:space="preserve">
<g>
	<g>
		<g>
			<path d="M292.541,248H312c17.648,0,32-14.352,32-32c0-13.413-8.294-24.914-20.02-29.665L421.2,0H283.152l-35.153,67.371
				L212.848,0H74.8l97.22,186.335C160.294,191.086,152,202.587,152,216c0,17.648,14.352,32,32,32h19.459
				C154.775,266.13,120,313.08,120,368c0,70.576,57.424,128,128,128s128-57.424,128-128C376,313.08,341.225,266.13,292.541,248z
				 M292.848,16H394.8L308,182.37l-50.975-97.7L292.848,16z M203.152,16l87.65,168H188.85L101.2,16H203.152z M168,216
				c0-8.824,7.176-16,16-16h128c8.824,0,16,7.176,16,16c0,8.824-7.176,16-16,16H184C175.176,232,168,224.824,168,216z M248,480
				c-61.76,0-112-50.24-112-112s50.24-112,112-112s112,50.24,112,112S309.76,480,248,480z"/>
			<path d="M328,368c0-44.112-35.888-80-80-80s-80,35.888-80,80s35.888,80,80,80S328,412.112,328,368z M184,368
				c0-35.288,28.712-64,64-64c35.288,0,64,28.712,64,64c0,35.288-28.712,64-64,64C212.712,432,184,403.288,184,368z"/>
			<rect x="240" y="264" width="16" height="16"/>
			<rect x="203.259" y="271.309" transform="matrix(0.3828 0.9238 -0.9238 0.3828 388.4204 -22.7801)" width="16" height="16"/>
			<rect x="172.115" y="292.116" transform="matrix(0.7071 0.7071 -0.7071 0.7071 264.9686 -39.4588)" width="16" height="16"/>
			<rect x="151.314" y="323.234" transform="matrix(0.9238 0.3828 -0.3828 0.9238 138.936 -35.756)" width="16" height="16"/>
			<rect x="144" y="360" width="16" height="16"/>
			<rect x="151.278" y="396.727" transform="matrix(0.9238 -0.3828 0.3828 0.9238 -142.8016 91.8034)" width="16" height="16"/>
			<rect x="172.059" y="427.852" transform="matrix(-0.7071 -0.7071 0.7071 -0.7071 -0.8139 871.3661)" width="16" height="16"/>
			
				<rect x="203.275" y="448.699" transform="matrix(-0.9238 -0.3828 0.3828 -0.9238 231.6272 959.4874)" width="15.999" height="16"/>
			<rect x="240" y="456" width="16" height="16"/>
			
				<rect x="276.733" y="448.713" transform="matrix(-0.3828 -0.9238 0.9238 -0.3828 -28.1918 894.5917)" width="16" height="15.999"/>
			<rect x="307.847" y="427.856" transform="matrix(-0.7071 -0.7071 0.7071 -0.7071 230.9877 967.3896)" width="16" height="16"/>
			<rect x="328.685" y="396.743" transform="matrix(-0.9238 -0.3828 0.3828 -0.9238 492.7837 907.5414)" width="16" height="16"/>
			<rect x="336" y="360" width="16" height="16"/>
			<rect x="328.713" y="323.26" transform="matrix(-0.9238 0.3828 -0.3828 -0.9238 774.5863 508.3909)" width="16" height="16"/>
			<rect x="307.879" y="292.12" transform="matrix(-0.7071 -0.7071 0.7071 -0.7071 327.0225 735.6974)" width="16" height="16"/>
			<rect x="276.726" y="271.314" transform="matrix(0.9238 0.3828 -0.3828 0.9238 128.6135 -87.7204)" width="16" height="16"/>
		</g>
	</g>
</g>
</svg>