<?xml version="1.0" encoding="iso-8859-1"?>
<!-- Uploaded to: SVG Repo, www.svgrepo.com, Generator: SVG Repo Mixer Tools -->
<svg fill="#000000" height="800px" width="800px" version="1.1" id="Layer_1" xmlns="http://www.w3.org/2000/svg" xmlns:xlink="http://www.w3.org/1999/xlink" 
	 viewBox="0 0 496 496" xml:space="preserve">
<g>
	<g>
		<g>
			<path d="M327.996,268.24V240c0-6.168-2.408-11.744-6.24-16c3.84-4.256,6.24-9.832,6.24-16v-8h16v-16h-18.8l96-184H283.148
				l-35.152,67.368L212.844,0H74.804l96,184h-18.808v16h16v8c0,6.168,2.408,11.744,6.24,16c-3.84,4.256-6.24,9.832-6.24,16v28.24
				c-29.224,23.48-48,59.448-48,99.76c0,70.576,57.424,128,128,128s128-57.424,128-128
				C375.996,327.688,357.22,291.72,327.996,268.24z M394.796,16l-86.8,166.368l-25.456-48.8L348.668,16H394.796z M303.996,216h-112
				c-4.416,0-8-3.592-8-8v-8h128v8C311.996,212.408,308.412,216,303.996,216z M311.996,240v17.32
				c-18.856-10.944-40.672-17.32-64-17.32s-45.144,6.376-64,17.32V240c0-4.408,3.584-8,8-8h112
				C308.412,232,311.996,235.592,311.996,240z M292.844,16h37.472L273.7,116.648l-16.688-31.984L292.844,16z M101.188,16H203.14
				l87.656,168H188.844L101.188,16z M335.132,326.928l13.488-7.784c6.104,12.512,9.928,26.288,10.968,40.856h-15.592v16h15.592
				c-1.04,14.568-4.872,28.344-10.968,40.856l-13.488-7.784l-8,13.856l13.568,7.832c-7.992,11.776-18.168,21.952-29.936,29.944
				l-7.832-13.568l-13.856,8l7.784,13.488c-12.512,6.104-26.288,9.928-40.856,10.968V464h-16v15.592
				c-14.568-1.04-28.344-4.872-40.856-10.968l7.784-13.488l-13.856-8l-7.832,13.568c-11.776-7.992-21.944-18.168-29.944-29.944
				l13.568-7.832l-8-13.856l-13.488,7.784c-6.104-12.512-9.928-26.288-10.968-40.856h15.584v-16h-15.592
				c1.04-14.568,4.872-28.344,10.968-40.856l13.488,7.784l8-13.856l-13.568-7.832c7.992-11.776,18.168-21.944,29.944-29.944
				l7.832,13.568l13.856-8l-7.784-13.488c12.512-6.104,26.288-9.928,40.856-10.968V272h16v-15.592
				c14.568,1.04,28.344,4.872,40.856,10.968l-7.784,13.488l13.856,8l7.832-13.568c11.776,7.992,21.944,18.168,29.944,29.944
				l-13.568,7.832L335.132,326.928z"/>
			<path d="M247.996,288c-44.112,0-80,35.888-80,80s35.888,80,80,80s80-35.888,80-80S292.108,288,247.996,288z M247.996,432
				c-35.288,0-64-28.712-64-64c0-35.288,28.712-64,64-64c35.288,0,64,28.712,64,64C311.996,403.288,283.284,432,247.996,432z"/>
		</g>
	</g>
</g>
</svg>