<?xml version="1.0" encoding="iso-8859-1"?>
<!-- Uploaded to: SVG Repo, www.svgrepo.com, Generator: SVG Repo Mixer Tools -->
<svg fill="#000000" height="800px" width="800px" version="1.1" id="Layer_1" xmlns="http://www.w3.org/2000/svg" xmlns:xlink="http://www.w3.org/1999/xlink" 
	 viewBox="0 0 512 512" xml:space="preserve">
<g>
	<g>
		<path d="M429.578,294.982l-58.624-10.511V103.149V77.491v-4.604h28.651c20.096,0,36.443-16.348,36.443-36.443
			C436.049,16.348,419.701,0,399.606,0H112.395C92.299,0,75.951,16.349,75.951,36.443c0,20.095,16.347,36.443,36.443,36.443h28.651
			v4.604v25.659v177.924l-58.389,8.652c-2.907,0.431-5.332,2.449-6.282,5.232c-0.951,2.781-0.269,5.861,1.767,7.983l71.405,74.369
			c0.013,0.014,0.026,0.027,0.039,0.041l8.333,8.679l-19.153,113.583c-0.489,2.899,0.681,5.828,3.034,7.592
			c2.352,1.765,5.491,2.067,8.139,0.786l103.673-50.197l102.106,53.315c1.144,0.597,2.392,0.893,3.636,0.893
			c1.59,0,3.173-0.482,4.522-1.431c2.404-1.692,3.662-4.584,3.261-7.497l-15.702-114.112l82.257-80.633
			c2.099-2.057,2.875-5.115,2.008-7.925C434.835,297.593,432.473,295.502,429.578,294.982z M383.336,302.657L168.966,415.01
			l5.103-30.265c0.414-2.452-0.357-4.955-2.079-6.749l-3.839-3.999l156.273-81.904L383.336,302.657z M156.759,95.293v-9.946h198.482
			v9.946H156.759z M302.488,111.006v136.062l-37.558-75.563c-1.308-2.633-3.977-4.314-6.917-4.359
			c-2.96-0.028-5.658,1.556-7.046,4.147l-40.486,75.622V111.006H302.488z M194.767,111.006v162.107l-38.008,5.632V111.006H194.767z
			 M156.759,69.634V44.3h198.482v25.334H156.759z M318.203,111.006h37.038v170.648l-37.038-6.641V111.006z M112.395,57.173
			c-11.43,0-20.729-9.298-20.729-20.73s9.298-20.729,20.729-20.729h287.211c11.43,0,20.73,9.299,20.73,20.729
			c0,11.43-9.299,20.73-20.73,20.73h-28.651V44.3h20.753c4.34,0,7.857-3.518,7.857-7.857c0-4.339-3.517-7.857-7.857-7.857h-28.609
			H148.902h-25.469c-4.34,0-7.857,3.518-7.857,7.857c0,4.339,3.517,7.857,7.857,7.857h17.612v12.873H112.395z M156.819,362.194
			l-56.799-59.157l47.287-7.005c0.515,0.107,1.049,0.162,1.595,0.162c1.362,0,2.642-0.347,3.759-0.956l50.152-7.432
			c2.46-0.365,4.601-1.872,5.775-4.064l49.048-91.611l46.223,92.997L156.819,362.194z M337.612,380.506
			c-1.776,1.741-2.623,4.219-2.284,6.681l14.165,102.945l-92.114-48.098c-1.139-0.594-2.386-0.893-3.637-0.893
			c-1.17,0-2.341,0.262-3.425,0.786l-93.528,45.285l8.893-52.743l242.873-127.292l3.261,0.585L337.612,380.506z"/>
	</g>
</g>
</svg>