<?xml version="1.0" encoding="iso-8859-1"?>
<!-- Uploaded to: SVG Repo, www.svgrepo.com, Generator: SVG Repo Mixer Tools -->
<svg fill="#000000" height="800px" width="800px" version="1.1" id="Layer_1" xmlns="http://www.w3.org/2000/svg" xmlns:xlink="http://www.w3.org/1999/xlink" 
	 viewBox="0 0 496 496" xml:space="preserve">
<g>
	<g>
		<g>
			<path d="M314.912,224.6l103.008-44.144L357.768,0H138.232L78.08,180.456L181.088,224.6C135.312,248.736,104,296.752,104,352
				c0,79.4,64.6,144,144,144s144-64.6,144-144C392,296.752,360.688,248.736,314.912,224.6z M346.232,16l51.848,155.544l-25,10.712
				L315.248,16H346.232z M210.432,16l48.432,130.776l15.008-5.552L227.496,16h70.816l60.024,172.576l-57.76,24.752l-20.784-56.112
				l-15.008,5.552l18.432,49.76c-9.48-2.4-19.312-3.84-29.424-4.248L187.232,16H210.432z M236.96,208.56
				c-8.488,0.648-16.736,2.064-24.752,4.128l12.848-38.536L236.96,208.56z M97.92,171.544L149.768,16h20.536l5.376,15.544
				l-52.752,150.728L97.92,171.544z M137.672,188.584l46.44-132.688l32.408,93.608l-0.104-0.04l-21.248,63.752L137.672,188.584z
				 M248,480c-70.576,0-128-57.424-128-128s57.424-128,128-128s128,57.424,128,128S318.576,480,248,480z"/>
			<path d="M248,256c-52.936,0-96,43.064-96,96c0,52.936,43.064,96,96,96c52.936,0,96-43.064,96-96C344,299.064,300.936,256,248,256
				z M248,432c-44.112,0-80-35.888-80-80s35.888-80,80-80s80,35.888,80,80S292.112,432,248,432z"/>
		</g>
	</g>
</g>
</svg>