<?xml version="1.0" encoding="iso-8859-1"?>
<!-- Uploaded to: SVG Repo, www.svgrepo.com, Generator: SVG Repo Mixer Tools -->
<svg fill="#000000" height="800px" width="800px" version="1.1" id="Layer_1" xmlns="http://www.w3.org/2000/svg" xmlns:xlink="http://www.w3.org/1999/xlink" 
	 viewBox="0 0 511.999 511.999" xml:space="preserve">
<g>
	<g>
		<path d="M404.409,174.855L356.439,5.716c-0.933-3.287-3.928-5.521-7.361-5.524l-84.903,0.573l-13.281-0.089
			c-1.013-0.224-2.084-0.241-3.158-0.021l-4.976-0.033c-0.892-0.163-1.781-0.164-2.634-0.018L150.832,0c-0.018,0-0.034,0-0.052,0
			c-3.47,0-6.502,2.353-7.361,5.719l-35.883,140.697c-0.949,3.721,1.027,7.564,4.605,8.958l122.447,47.683l0.133,32.824
			c0.008,2.125,0.912,4.126,2.449,5.546c-10.767,2.973-18.698,12.847-18.698,24.546v10.264
			c-53.562,11.698-93.788,59.489-93.788,116.508c0,65.757,53.497,119.254,119.254,119.254c65.757,0,119.254-53.497,119.254-119.254
			c0-57.019-40.227-104.811-93.789-116.508v-10.264c0-12.061-8.432-22.185-19.709-24.802l105.958-40.336
			c0.001,0,0.002,0,0.003-0.001l44.145-16.805C403.484,182.627,405.484,178.644,404.409,174.855z M123.922,143.655l32.752-128.421
			l19.193,0.13L141.01,150.309L123.922,143.655z M155.268,155.862l36.265-140.393l40.044,0.27l-39.862,154.316L155.268,155.862z
			 M205.974,175.609l28.065-108.647l0.483,119.764L205.974,175.609z M348,392.746c0,57.379-46.682,104.06-104.06,104.06
			c-57.379,0-104.06-46.682-104.06-104.06c0-57.378,46.681-104.06,104.06-104.06C301.319,288.685,348,335.366,348,392.746z
			 M254.212,265.972v7.965c-3.387-0.291-6.811-0.447-10.272-0.447c-3.461,0-6.885,0.157-10.272,0.448v-7.966
			c0-5.664,4.608-10.272,10.272-10.272C249.604,255.7,254.212,260.308,254.212,265.972z M249.871,224.848l-0.11-27.2
			c0-0.004,0-0.008,0-0.011l-0.644-159.723l44.031,170.46L249.871,224.848z M307.435,202.933L259.147,15.993l5.01-0.033
			l22.742,0.154c0.018,0,0.034,0,0.053,0c0.76,0,1.492-0.114,2.184-0.322l10.055-0.068l44.767,173.307L307.435,202.933z
			 M358.245,183.591L314.857,15.618l28.542-0.192l44.494,156.88L358.245,183.591z"/>
	</g>
</g>
<g>
	<g>
		<path d="M243.939,306.196c-47.724,0-86.551,38.825-86.551,86.55c0,47.724,38.827,86.55,86.551,86.55s86.55-38.826,86.55-86.55
			S291.663,306.196,243.939,306.196z M172.584,392.746c-0.002-39.346,32.009-71.357,71.355-71.357
			c7.868,0,15.433,1.299,22.517,3.662c-1.687,3.499-2.918,7.436-4.127,11.319c-1.587,5.101-3.23,10.375-5.57,13.43
			c-1.719,2.245-4.669,3.058-9.734,4.303c-6.729,1.654-15.102,3.711-22.329,11.896c-4.593,5.199-6.834,10.501-8.812,15.179
			c-3.143,7.436-4.721,11.167-14.209,12.998c-13.047,2.517-22.118,8.113-27.682,12.692
			C173.072,402.301,172.584,397.58,172.584,392.746z M202.686,450.913c-10.02-7.127-18.128-16.766-23.392-28.002
			c0.051-0.066,0.106-0.124,0.155-0.19c0.313-0.418,7.865-10.301,25.103-13.626c17.448-3.366,21.816-13.698,25.325-22.001
			c1.673-3.958,3.254-7.696,6.205-11.037c4.082-4.622,8.941-5.816,14.567-7.199c6.149-1.511,13.12-3.224,18.17-9.818
			c3.982-5.198,6.124-12.08,8.015-18.152c0.825-2.648,2.127-6.823,3.425-9.527c10.413,6.182,19.119,14.937,25.251,25.383
			c-3.681,4.534-5.637,10.847-7.541,17.018c-1.621,5.253-3.296,10.685-5.71,13.852c-1.797,2.359-4.848,3.211-10.085,4.513
			c-6.871,1.708-15.422,3.833-22.774,12.202c-4.676,5.322-6.954,10.751-8.965,15.542c-3.231,7.701-4.854,11.566-14.686,13.489
			C217.557,436.919,206.948,446.308,202.686,450.913z M243.939,464.102c-9.715,0-18.98-1.958-27.429-5.49
			c3.921-3.401,11.099-8.177,22.155-10.34c17.788-3.481,22.219-14.037,25.778-22.52c1.712-4.08,3.33-7.934,6.369-11.394
			c4.215-4.798,9.224-6.043,15.024-7.486c6.273-1.559,13.384-3.326,18.507-10.049c4.05-5.315,6.13-12.058,8.143-18.58
			c0.229-0.74,0.485-1.57,0.76-2.434c1.328,5.432,2.048,11.101,2.048,16.938C315.295,432.091,283.285,464.102,243.939,464.102z"/>
	</g>
</g>
</svg>