<?xml version="1.0" encoding="iso-8859-1"?>
<!-- Uploaded to: SVG Repo, www.svgrepo.com, Generator: SVG Repo Mixer Tools -->
<svg fill="#000000" height="800px" width="800px" version="1.1" id="Layer_1" xmlns="http://www.w3.org/2000/svg" xmlns:xlink="http://www.w3.org/1999/xlink" 
	 viewBox="0 0 496 496" xml:space="preserve">
<g>
	<g>
		<g>
			<path d="M293.508,232h10.488c13.232,0,24-10.768,24-24v-8h16v-16h-18.8l96-184H283.148l-35.152,67.368L212.844,0H74.804l96,184
				h-18.808v16h16v8c0,13.232,10.768,24,24,24h10.488c-52.64,18.784-90.488,68.992-90.488,128c0,74.992,61.008,136,136,136
				s136-61.008,136-136C383.996,300.992,346.148,250.784,293.508,232z M394.804,16l-86.808,166.368l-10.976-21.04L372.844,16
				H394.804z M354.796,16l-66.8,128.04l-10.976-21.032L332.844,16H354.796z M292.844,16h21.952l-46.8,89.704l-10.976-21.04
				L292.844,16z M203.148,16l87.648,168h-21.952L181.196,16H203.148z M101.188,16h21.952l26.976,51.696l14.184-7.4L141.196,16
				h21.952l87.648,168h-21.952L172.652,76.304l-14.184,7.4L210.796,184h-21.952L101.188,16z M191.996,216c-4.416,0-8-3.592-8-8v-8
				h128v8c0,4.408-3.584,8-8,8H191.996z M247.996,480c-66.168,0-120-53.832-120-120s53.832-120,120-120s120,53.832,120,120
				S314.164,480,247.996,480z"/>
			<path d="M271.996,258.976V256h-80v16.52c-29.704,19.056-48,52.128-48,87.48c0,35.352,18.296,68.416,48,87.48V464h112v-16.52
				c29.704-19.056,48-52.128,48-87.48C351.996,311.376,318.724,269.976,271.996,258.976z M191.996,427.568
				c-19.952-16.584-32-41.296-32-67.568c0-26.272,12.048-50.992,32-67.568V304h32v112h-32V427.568z M287.996,448h-80v-16h32V288h-32
				v-16h48v160h32V448z M303.996,427.568V416h-32V275.472c37.592,10.56,64,44.688,64,84.528
				C335.996,386.28,323.948,410.992,303.996,427.568z"/>
		</g>
	</g>
</g>
</svg>