<?xml version="1.0" encoding="iso-8859-1"?>
<!-- Uploaded to: SVG Repo, www.svgrepo.com, Generator: SVG Repo Mixer Tools -->
<svg fill="#000000" height="800px" width="800px" version="1.1" id="Layer_1" xmlns="http://www.w3.org/2000/svg" xmlns:xlink="http://www.w3.org/1999/xlink" 
	 viewBox="0 0 496 496" xml:space="preserve">
<g>
	<g>
		<g>
			<path d="M324.576,336.936l29.96-12.408l-6.128-14.784l-29.96,12.408c-2.44-4.528-5.312-8.792-8.544-12.744l39.912-39.92
				l-11.312-11.312l-39.912,39.92c-3.952-3.24-8.224-6.104-12.752-8.552l12.408-29.952l-14.784-6.128l-12.408,29.96
				c-4.848-1.464-9.88-2.496-15.064-3.016V232h48c13.232,0,24-10.768,24-24v-8h16v-16h-18.8l96-184h-138.04L248,67.368L212.848,0
				H74.808l96,184H152v16h16v8c0,13.232,10.768,24,24,24h48v48.408c-5.184,0.52-10.216,1.552-15.064,3.016l-12.408-29.96
				l-14.784,6.128l12.408,29.952c-4.528,2.44-8.8,5.312-12.752,8.552l-39.912-39.92l-11.312,11.312l39.912,39.92
				c-3.24,3.952-6.104,8.216-8.544,12.744l-29.96-12.408l-6.128,14.784l29.96,12.408c-1.464,4.848-2.496,9.88-3.016,15.064H112v16
				h56.408c0.52,5.184,1.552,10.216,3.016,15.064l-29.96,12.408l6.128,14.784l29.96-12.408c2.44,4.528,5.312,8.792,8.544,12.744
				l-39.912,39.92l11.312,11.312l39.912-39.92c3.952,3.24,8.224,6.104,12.752,8.552l-12.408,29.952l14.784,6.128l12.408-29.96
				c4.848,1.464,9.88,2.496,15.064,3.016V496h16v-56.408c5.184-0.52,10.216-1.552,15.064-3.016l12.408,29.96l14.784-6.128
				l-12.408-29.952c4.528-2.44,8.8-5.312,12.752-8.552l39.912,39.92l11.312-11.312l-39.912-39.92
				c3.24-3.952,6.104-8.216,8.544-12.744l29.96,12.408l6.128-14.784l-29.96-12.408c1.464-4.848,2.496-9.88,3.016-15.064H384v-16
				h-56.408C327.08,346.816,326.04,341.784,324.576,336.936z M394.8,16L308,182.368l-10.976-21.04L372.848,16H394.8z M354.8,16
				L288,144.04L277.024,123l55.824-107H354.8z M292.848,16H314.8L268,105.704l-10.976-21.04L292.848,16z M101.192,16h101.952
				L290.8,184H188.848L101.192,16z M192,216c-4.416,0-8-3.592-8-8v-8h128v8c0,4.408-3.584,8-8,8H192z M248,424
				c-35.288,0-64-28.712-64-64c0-35.288,28.712-64,64-64c35.288,0,64,28.712,64,64C312,395.288,283.288,424,248,424z"/>
			<path d="M248,312c-26.472,0-48,21.528-48,48s21.528,48,48,48s48-21.528,48-48S274.472,312,248,312z M248,392
				c-17.648,0-32-14.352-32-32s14.352-32,32-32s32,14.352,32,32S265.648,392,248,392z"/>
		</g>
	</g>
</g>
</svg>