<?xml version="1.0" encoding="iso-8859-1"?>
<!-- Uploaded to: SVG Repo, www.svgrepo.com, Generator: SVG Repo Mixer Tools -->
<svg fill="#000000" height="800px" width="800px" version="1.1" id="Layer_1" xmlns="http://www.w3.org/2000/svg" xmlns:xlink="http://www.w3.org/1999/xlink" 
	 viewBox="0 0 512 512" xml:space="preserve">
<g>
	<g>
		<path d="M429.884,102.638L373.86,4.716c-0.371-0.905-0.923-1.754-1.658-2.488c-1.511-1.511-3.501-2.25-5.483-2.222
			c-0.029,0-0.059-0.005-0.088-0.004c-0.082,0.001-0.162,0.016-0.244,0.02c-0.155,0.009-0.309,0.02-0.463,0.039
			c-1.917,0.21-3.662,1.135-4.91,2.574c-16.516,16.002-57.583,26.319-104.977,26.319c-47.799,0-89.174-10.49-105.409-26.726
			c-0.414-0.414-0.866-0.764-1.342-1.062c-0.06-0.038-0.122-0.072-0.183-0.107c-0.215-0.127-0.434-0.241-0.657-0.345
			c-0.062-0.028-0.123-0.059-0.186-0.086c-0.285-0.123-0.574-0.232-0.87-0.318c-0.009-0.003-0.019-0.004-0.028-0.007
			c-0.281-0.081-0.567-0.141-0.854-0.19c-0.085-0.014-0.171-0.025-0.258-0.037c-0.244-0.032-0.49-0.053-0.735-0.062
			c-0.049-0.002-0.096-0.011-0.146-0.012C145.33,0,145.289,0,145.249,0c-0.01,0-0.019,0.002-0.028,0.002
			c-0.291,0.001-0.581,0.023-0.87,0.058c-0.088,0.01-0.174,0.024-0.262,0.038c-0.231,0.036-0.46,0.082-0.689,0.139
			c-0.067,0.017-0.135,0.03-0.202,0.05c-0.293,0.082-0.581,0.18-0.865,0.296c-0.021,0.009-0.042,0.02-0.063,0.029
			c-0.255,0.109-0.504,0.233-0.748,0.371c-0.065,0.037-0.128,0.075-0.192,0.114c-0.203,0.122-0.4,0.255-0.592,0.397
			c-0.06,0.045-0.122,0.086-0.18,0.133c-0.237,0.187-0.469,0.383-0.687,0.602c-0.221,0.221-0.421,0.455-0.609,0.696
			c-0.046,0.059-0.088,0.121-0.133,0.181c-0.149,0.203-0.287,0.41-0.414,0.623c-0.021,0.035-0.048,0.066-0.068,0.101l-56.531,98.81
			c-1.997,3.489-0.933,7.93,2.429,10.136l140.331,92.112c-2.266,4.605-3.544,9.781-3.544,15.251v16.395
			c-60.432,15.462-105.241,70.375-105.241,135.558C116.092,449.237,178.854,512,256,512s139.909-62.763,139.909-139.909
			c0-65.183-44.809-120.095-105.241-135.558v-16.395c0-5.471-1.278-10.646-3.545-15.251l140.332-92.111
			C430.817,110.568,431.881,106.128,429.884,102.638z M256.036,44.166c29.521,0,64.724-4.229,90.731-15.138l-47.636,89.726h-86.263
			l-47.657-89.766C191.227,39.927,226.479,44.166,256.036,44.166z M263.298,186.248c-2.354-0.507-4.794-0.78-7.298-0.78
			c-2.504,0-4.944,0.273-7.299,0.78l-27.756-52.282h70.11L263.298,186.248z M275.456,220.138v13.405
			c-6.361-0.888-12.854-1.359-19.456-1.359c-6.601,0-13.094,0.471-19.455,1.359v-13.405c0-2.386,0.452-4.663,1.242-6.777
			l14.039,9.215c0.02,0.013,0.042,0.021,0.062,0.034c0.283,0.182,0.574,0.344,0.873,0.486c0.052,0.024,0.104,0.045,0.156,0.068
			c0.273,0.122,0.552,0.227,0.836,0.314c0.046,0.014,0.089,0.031,0.135,0.045c0.305,0.088,0.615,0.153,0.928,0.202
			c0.075,0.012,0.149,0.021,0.225,0.03c0.315,0.041,0.633,0.068,0.951,0.068c0.002,0,0.005,0,0.007,0c0.001,0,0.001,0,0.002,0
			c0.001,0,0.001,0,0.002,0c0.002,0,0.005,0,0.007,0c0.318,0,0.635-0.027,0.951-0.068c0.075-0.009,0.149-0.019,0.224-0.03
			c0.312-0.049,0.623-0.115,0.929-0.203c0.045-0.013,0.087-0.029,0.132-0.044c0.285-0.088,0.565-0.194,0.84-0.316
			c0.051-0.022,0.102-0.043,0.153-0.067c0.301-0.142,0.593-0.304,0.877-0.487c0.019-0.012,0.041-0.02,0.059-0.032l14.041-9.216
			C275.002,215.474,275.456,217.751,275.456,220.138z M98.873,103.983l46.129-80.624l89.884,169.309
			c-0.138,0.107-0.274,0.214-0.41,0.323L98.873,103.983z M380.696,372.091c0,68.758-55.938,124.696-124.696,124.696
			c-68.757,0-124.695-55.938-124.695-124.696c0-68.757,55.938-124.695,124.695-124.695
			C324.758,247.396,380.696,303.334,380.696,372.091z M277.525,192.991c-0.136-0.109-0.273-0.216-0.41-0.323L310.385,130
			c0.007-0.012,0.013-0.024,0.019-0.036L367,23.359l46.128,80.624L277.525,192.991z"/>
	</g>
</g>
<g>
	<g>
		<path d="M311.696,280.232c-1.198-1.453-2.859-2.375-4.638-2.665c-15.197-8.241-32.59-12.926-51.059-12.926
			c-59.248,0-107.45,48.202-107.45,107.45c0,59.249,48.202,107.451,107.45,107.451c59.249,0,107.451-48.202,107.451-107.451
			C363.45,333.218,342.701,299.101,311.696,280.232z M256,279.854c11.734,0,22.96,2.207,33.294,6.22l-124.792,74.319
			C170.267,315.037,209.101,279.854,256,279.854z M163.983,378.408l141.381-84.199c22.957,14.602,39.049,39.068,42.273,67.384
			l-144.489,86.049C180.969,432.08,165.927,407.014,163.983,378.408z M256,464.329c-13.402,0-26.144-2.876-37.646-8.039
			l129.619-77.193C344.381,426.697,304.502,464.329,256,464.329z"/>
	</g>
</g>
</svg>