<?xml version="1.0" encoding="iso-8859-1"?>
<!-- Uploaded to: SVG Repo, www.svgrepo.com, Generator: SVG Repo Mixer Tools -->
<svg fill="#000000" height="800px" width="800px" version="1.1" id="Layer_1" xmlns="http://www.w3.org/2000/svg" xmlns:xlink="http://www.w3.org/1999/xlink" 
	 viewBox="0 0 496 496" xml:space="preserve">
<g>
	<g>
		<g>
			<path d="M317.703,192H352v-16h-20.688L360,147.312V0H136v147.312L164.688,176H144v16h34.297C124.897,217.953,88,272.747,88,336
				c0,88.224,71.776,160,160,160s160-71.776,160-160C408,272.747,371.103,217.953,317.703,192z M384.244,289.363l-90.876-16.523
				l-40.376-80.744C313.906,194.183,365.336,234.281,384.244,289.363z M317.104,433.688L248,399.048l-69.096,34.64l13.712-76.384
				l-56.16-56.16l76.912-13.984L248,217.888l34.64,69.272l76.912,13.984l-56.16,56.16L317.104,433.688z M216,176V16h64v160H216z
				 M344,140.688L308.688,176H296V16h48V140.688z M152,140.688V16h48v160h-12.688L152,140.688z M243.008,192.096l-40.376,80.744
				l-90.876,16.523C130.664,234.281,182.094,194.183,243.008,192.096z M104,336c0-13.601,1.897-26.768,5.438-39.25l65.946,65.946
				l-15.619,87.022C125.857,423.348,104,382.18,104,336z M169.188,456.456L248,416.952l78.812,39.504
				C304.153,471.332,277.072,480,248,480C218.929,480,191.847,471.332,169.188,456.456z M336.235,449.718l-15.619-87.022
				l65.946-65.946C390.103,309.232,392,322.399,392,336C392,382.18,370.143,423.348,336.235,449.718z"/>
			<path d="M248,288c-26.472,0-48,21.528-48,48s21.528,48,48,48s48-21.528,48-48S274.472,288,248,288z M248,368
				c-17.648,0-32-14.352-32-32s14.352-32,32-32s32,14.352,32,32S265.648,368,248,368z"/>
		</g>
	</g>
</g>
</svg>