<?xml version="1.0" encoding="iso-8859-1"?>
<!-- Uploaded to: SVG Repo, www.svgrepo.com, Generator: SVG Repo Mixer Tools -->
<svg fill="#000000" height="800px" width="800px" version="1.1" id="Layer_1" xmlns="http://www.w3.org/2000/svg" xmlns:xlink="http://www.w3.org/1999/xlink" 
	 viewBox="0 0 496.944 496.944" xml:space="preserve">
<g>
	<g>
		<g>
			<path d="M280.472,248c0-5.856-1.696-11.272-4.448-16h28.448c13.232,0,24-10.768,24-24v-8h16v-16h-18.8l96-184H283.624
				l-35.152,67.376L213.32,0H75.272l96,184h-18.8v16h16v8c0,13.232,10.768,24,24,24h28.448c-2.752,4.728-4.448,10.144-4.448,16
				c0,5.224,1.312,10.304,3.704,14.832l-75.704,18.92V400.44c0,27.448,15.248,52.128,39.8,64.4l64.2,32.104l64.2-32.104
				c24.552-12.272,39.8-36.944,39.8-64.392V281.752l-75.704-18.928C279.16,258.304,280.472,253.224,280.472,248z M293.32,16h101.952
				l-86.8,166.368l-50.976-97.704L293.32,16z M101.672,16h101.952l87.648,168H189.32L101.672,16z M192.472,216c-4.408,0-8-3.592-8-8
				v-8h128v8c0,4.408-3.592,8-8,8H192.472z M264.472,248c0,4.048-1.528,7.784-4.216,10.696l-11.784-2.944l-11.784,2.944
				c-2.688-2.912-4.216-6.648-4.216-10.696c0-8.824,7.176-16,16-16C257.296,232,264.472,239.176,264.472,248z M336.472,294.248
				v106.2c0,21.344-11.864,40.536-30.96,50.088l-57.04,28.52l-57.04-28.52c-19.096-9.552-30.96-28.744-30.96-50.088v-106.2l88-22
				L336.472,294.248z"/>
			<path d="M176.472,305.752v93.52c0,18.304,10.168,34.752,26.536,42.936l45.464,22.736l45.464-22.736
				c16.368-8.176,26.536-24.632,26.536-42.928v-93.52l-72-18L176.472,305.752z M304.472,399.28c0,12.2-6.776,23.168-17.688,28.624
				l-38.312,19.152l-38.312-19.16c-10.912-5.448-17.688-16.416-17.688-28.616v-81.032l56-14l56,14V399.28z"/>
		</g>
	</g>
</g>
</svg>