<?xml version="1.0" encoding="iso-8859-1"?>
<!-- Uploaded to: SVG Repo, www.svgrepo.com, Generator: SVG Repo Mixer Tools -->
<svg fill="#000000" height="800px" width="800px" version="1.1" id="Layer_1" xmlns="http://www.w3.org/2000/svg" xmlns:xlink="http://www.w3.org/1999/xlink" 
	 viewBox="0 0 496 496" xml:space="preserve">
<g>
	<g>
		<path d="M333.552,292c-0.256-0.272-0.44-0.584-0.696-0.848c-0.224-0.224-0.496-0.368-0.72-0.584
			c-15.096-14.872-34.128-25.672-55.336-30.928c6.896-7.192,11.2-16.904,11.2-27.64c0-9.088-3.16-17.376-8.288-24.096l52.872-31.72
			C344.56,169,352,155.848,352,141.88V0H144v141.88c0,13.968,7.44,27.112,19.416,34.296l52.872,31.72
			C211.16,214.624,208,222.912,208,232c0,10.736,4.304,20.448,11.208,27.64c-21.216,5.256-40.24,16.064-55.336,30.928
			c-0.224,0.216-0.496,0.36-0.72,0.584c-0.264,0.264-0.448,0.576-0.696,0.848C141.176,313.664,128,343.312,128,376
			s13.176,62.336,34.448,84c0.256,0.272,0.432,0.584,0.696,0.848c0.264,0.264,0.576,0.448,0.848,0.696
			C185.664,482.824,215.312,496,248,496s62.336-13.176,84-34.448c0.272-0.256,0.584-0.432,0.848-0.696
			c0.264-0.264,0.448-0.584,0.704-0.856C354.824,438.336,368,408.688,368,376S354.824,313.664,333.552,292z M332.848,336.4
			c2.864-2.864,5.064-6.2,6.648-9.8c3.36,6.192,6.064,12.784,8.12,19.656C344,344.848,340.104,344,336,344
			c-7.776,0-14.824,2.904-20.376,7.528c-0.752-2.064-1.584-4.08-2.512-6.048C320.312,344.832,327.344,341.904,332.848,336.4z
			 M352,376c0,8.824-7.176,16-16,16c-8.824,0-16-7.176-16-16c0-8.824,7.176-16,16-16C344.824,360,352,367.176,352,376z
			 M310.232,297.768c3.952,0,7.64,1.48,10.568,4.08c0.456,0.448,0.904,0.896,1.352,1.352c2.6,2.928,4.08,6.624,4.08,10.568
			c0,4.272-1.664,8.296-4.688,11.32c-6.24,6.232-16.384,6.232-22.632,0c-6.232-6.24-6.24-16.392,0-22.632
			C301.936,299.432,305.952,297.768,310.232,297.768z M248,256c-13.232,0-24-10.768-24-24s10.768-24,24-24s24,10.768,24,24
			S261.232,256,248,256z M264,288c0,8.824-7.176,16-16,16c-8.824,0-16-7.176-16-16c0-8.824,7.176-16,16-16
			C256.824,272,264,279.176,264,288z M248,320c30.88,0,56,25.12,56,56s-25.12,56-56,56s-56-25.12-56-56S217.12,320,248,320z
			 M277.736,276.384c6.936,2.072,13.584,4.808,19.84,8.208c-3.672,1.512-7.088,3.664-9.976,6.56
			c-5.504,5.496-8.432,12.536-9.08,19.736c-1.968-0.928-3.984-1.76-6.048-2.512c4.624-5.552,7.528-12.6,7.528-20.376
			C280,283.896,279.152,280,277.736,276.384z M296,135.504V16h40v125.88c0,8.384-4.464,16.264-11.656,20.576L267,196.864
			l23.728-41.52C294.176,149.312,296,142.448,296,135.504z M216,16h64v119.504c0,4.168-1.096,8.288-3.16,11.912l-25.664,44.912
			C250.112,192.232,249.088,192,248,192s-2.112,0.232-3.176,0.32l-25.664-44.912c-2.064-3.616-3.16-7.736-3.16-11.904V16z
			 M171.656,162.464c-7.192-4.312-11.656-12.2-11.656-20.584V16h40v119.504c0,6.952,1.824,13.816,5.272,19.848L229,196.872
			L171.656,162.464z M218.264,276.392C216.848,280,216,283.896,216,288c0,7.776,2.904,14.824,7.528,20.376
			c-2.064,0.752-4.08,1.584-6.048,2.512c-0.648-7.2-3.576-14.232-9.08-19.736c-2.888-2.888-6.312-5.04-9.976-6.552
			C204.672,281.2,211.328,278.464,218.264,276.392z M173.856,303.208c0.44-0.456,0.888-0.912,1.344-1.352
			c2.928-2.6,6.624-4.08,10.576-4.08c4.272,0,8.296,1.664,11.32,4.688c6.24,6.24,6.232,16.392,0,22.632
			c-6.24,6.232-16.392,6.232-22.632,0c-3.024-3.024-4.688-7.04-4.688-11.32C169.776,309.824,171.256,306.136,173.856,303.208z
			 M156.504,326.608c1.576,3.6,3.784,6.936,6.648,9.792c5.504,5.504,12.536,8.432,19.736,9.08c-0.928,1.968-1.76,3.984-2.512,6.048
			C174.824,346.904,167.776,344,160,344c-4.104,0-8,0.848-11.616,2.264C150.44,339.392,153.144,332.808,156.504,326.608z M160,360
			c8.824,0,16,7.176,16,16c0,8.824-7.176,16-16,16c-8.824,0-16-7.176-16-16C144,367.176,151.176,360,160,360z M163.152,415.6
			c-2.864,2.864-5.064,6.2-6.648,9.8c-3.36-6.192-6.064-12.784-8.12-19.656C152,407.152,155.896,408,160,408
			c7.776,0,14.824-2.904,20.376-7.528c0.752,2.064,1.584,4.08,2.512,6.048C175.688,407.168,168.656,410.104,163.152,415.6z
			 M175.096,450.04c-0.424-0.408-0.832-0.824-1.24-1.24c-2.6-2.928-4.08-6.624-4.08-10.576c0-4.272,1.664-8.296,4.688-11.32
			c3.12-3.12,7.216-4.672,11.312-4.672s8.192,1.56,11.32,4.672c6.232,6.24,6.24,16.392,0,22.632
			C191.24,455.392,181.216,455.52,175.096,450.04z M218.264,475.616c-6.872-2.056-13.456-4.76-19.656-8.12
			c3.6-1.576,6.936-3.784,9.792-6.648c5.504-5.496,8.432-12.536,9.08-19.736c1.968,0.928,3.984,1.76,6.048,2.512
			C218.904,449.176,216,456.224,216,464C216,468.104,216.848,472,218.264,475.616z M248,480c-8.824,0-16-7.176-16-16
			c0-8.824,7.176-16,16-16c8.824,0,16,7.176,16,16C264,472.824,256.824,480,248,480z M277.744,475.616
			C279.152,472,280,468.104,280,464c0-7.776-2.904-14.824-7.528-20.376c2.064-0.752,4.08-1.584,6.048-2.512
			c0.648,7.2,3.576,14.232,9.08,19.736c2.864,2.864,6.2,5.064,9.8,6.648C291.208,470.856,284.616,473.56,277.744,475.616z
			 M322.152,448.8c-0.416,0.416-0.824,0.832-1.24,1.24c-6.12,5.48-16.144,5.352-22-0.504c-6.24-6.24-6.232-16.392,0-22.632
			c3.12-3.12,7.216-4.672,11.32-4.672s8.192,1.56,11.312,4.672c3.024,3.024,4.688,7.04,4.688,11.32
			C326.232,442.176,324.752,445.864,322.152,448.8z M339.496,425.392c-1.576-3.6-3.784-6.936-6.648-9.792
			c-5.504-5.504-12.536-8.432-19.736-9.08c0.928-1.968,1.76-3.984,2.512-6.048c5.552,4.624,12.6,7.528,20.376,7.528
			c4.104,0,8-0.848,11.616-2.264C345.56,412.608,342.856,419.192,339.496,425.392z"/>
	</g>
</g>
</svg>