<?xml version="1.0" encoding="iso-8859-1"?>
<!-- Uploaded to: SVG Repo, www.svgrepo.com, Generator: SVG Repo Mixer Tools -->
<svg fill="#000000" height="800px" width="800px" version="1.1" id="Layer_1" xmlns="http://www.w3.org/2000/svg" xmlns:xlink="http://www.w3.org/1999/xlink" 
	 viewBox="0 0 496 496" xml:space="preserve">
<g>
	<g>
		<g>
			<path d="M247.996,320c-30.88,0-56,25.12-56,56s25.12,56,56,56s56-25.12,56-56S278.876,320,247.996,320z M247.996,416
				c-22.056,0-40-17.944-40-40c0-22.056,17.944-40,40-40c22.056,0,40,17.944,40,40C287.996,398.056,270.052,416,247.996,416z"/>
			<path d="M349.66,313.96l-51.184-7.44l-25.024-50.704c-2.72-5.504-7.04-9.768-12.208-12.496l156.736-62.696L357.764,0H138.228
				L78.02,180.624l156.736,62.696c-5.176,2.728-9.496,7-12.216,12.504l-25.016,50.696l-51.184,7.44
				c-15.016,2.184-26.344,15.272-26.344,30.448c0,8.24,3.384,16.272,9.288,22.032l37.032,36.096l-11.44,66.712
				c-1.144,6.664,0.704,13.456,5.064,18.624c6.752,8,18.944,10.368,28.144,5.504l59.912-31.504L307.9,493.36
				c3.264,1.728,6.952,2.64,10.656,2.64c6.76,0,13.136-2.968,17.496-8.136c4.36-5.168,6.2-11.96,5.064-18.624l-11.44-66.712
				l37.032-36.104c5.904-5.744,9.288-13.776,9.288-22.016C375.996,329.232,364.668,316.144,349.66,313.96z M346.228,16
				l51.792,155.376l-25.224,10.088L315.244,16H346.228z M210.436,16l48.432,130.776l15.008-5.552L227.492,16h70.816l59.624,171.408
				l-58.312,23.328l-19.816-53.512l-15.008,5.552l19.96,53.904l-24.904,9.96L187.22,16H210.436z M97.98,171.376L149.764,16h20.528
				l5.376,15.584l-52.456,149.888L97.98,171.376z M138.084,187.408l46-131.432l32.28,93.624l-20.328,60.992L138.084,187.408z
				 M210.908,216.544l14.032-42.072l19.072,55.312L210.908,216.544z M355.532,354.976l-43.056,41.976l12.864,75
				c0.472,2.744-0.752,4.688-1.52,5.608c-0.776,0.912-2.48,2.44-5.264,2.44c-1.112,0-2.216-0.272-3.2-0.792l-67.36-35.408
				l-67.36,35.416c-0.976,0.512-2.088,0.784-3.2,0.784c-2.784,0-4.496-1.528-5.264-2.448c-0.776-0.92-2-2.856-1.52-5.608l12.864-75
				l-43.056-41.968c-2.84-2.76-4.464-6.616-4.464-10.568c0-7.28,5.432-13.56,12.64-14.608l59.504-8.648l28.744-58.24
				c2.112-4.264,6.368-6.912,11.112-6.912s9,2.648,11.104,6.904l28.744,58.248l59.512,8.648c7.2,1.048,12.64,7.328,12.64,14.608
				C359.996,348.36,358.372,352.216,355.532,354.976z"/>
		</g>
	</g>
</g>
</svg>