<?xml version="1.0" encoding="iso-8859-1"?>
<!-- Uploaded to: SVG Repo, www.svgrepo.com, Generator: SVG Repo Mixer Tools -->
<svg fill="#000000" height="800px" width="800px" version="1.1" id="Layer_1" xmlns="http://www.w3.org/2000/svg" xmlns:xlink="http://www.w3.org/1999/xlink" 
	 viewBox="0 0 496 496" xml:space="preserve">
<g>
	<g>
		<g>
			<path d="M248,272c-61.76,0-112,50.24-112,112s50.24,112,112,112s112-50.24,112-112S309.76,272,248,272z M248,480
				c-52.936,0-96-43.064-96-96c0-52.936,43.064-96,96-96c52.936,0,96,43.064,96,96C344,436.936,300.936,480,248,480z"/>
			<path d="M248,304c-44.112,0-80,35.888-80,80s35.888,80,80,80s80-35.888,80-80S292.112,304,248,304z M248,448
				c-35.288,0-64-28.712-64-64c0-35.288,28.712-64,64-64c35.288,0,64,28.712,64,64C312,419.288,283.288,448,248,448z"/>
			<path d="M328,280c-8.824,0-16-7.176-16-16c0-8.984-5.016-16.736-12.344-20.848L429.336,0H331.16l-82.432,157.368L164.8,0H66.664
				l129.68,243.152C189.016,247.264,184,255.016,184,264c0,8.824-7.176,16-16,16c-8.824,0-16-7.176-16-16h-16
				c0,17.648,14.352,32,32,32s32-14.352,32-32c0-4.408,3.592-8,8-8h80c4.408,0,8,3.592,8,8c0,17.648,14.352,32,32,32
				s32-14.352,32-32h-16C344,272.824,336.824,280,328,280z M244.8,240l-19.072-35.768l-14.12,7.528L226.664,240H212.8L93.336,16
				H107.2l95.872,179.768l14.12-7.528L125.336,16H155.2l119.464,224H244.8z M288,231l-30.16-56.552L340.84,16h61.832L288,231z"/>
		</g>
	</g>
</g>
</svg>