<?xml version="1.0" encoding="iso-8859-1"?>
<!-- Uploaded to: SVG Repo, www.svgrepo.com, Generator: SVG Repo Mixer Tools -->
<svg fill="#000000" height="800px" width="800px" version="1.1" id="Layer_1" xmlns="http://www.w3.org/2000/svg" xmlns:xlink="http://www.w3.org/1999/xlink" 
	 viewBox="0 0 496 496" xml:space="preserve">
<g>
	<g>
		<path d="M368,272c-16.136,0-30.24,9.464-36.528,23.776l-38.104-6.928l-17.912-35.816C283.408,245.544,288,235.12,288,224
			c0-12.92-6.264-24.312-15.8-31.632l79.8-26.6V0H144v165.768l79.8,26.6C214.264,199.688,208,211.08,208,224
			c0,11.12,4.592,21.544,12.544,29.032l-17.912,35.816l-38.104,6.928C158.24,281.464,144.136,272,128,272c-22.056,0-40,17.944-40,40
			c0,22.056,17.944,40,40,40c5.888,0,11.632-1.296,16.912-3.776l30.48,30.48l-6.832,38.064C150.088,420.296,136,436.672,136,456
			c0,22.056,17.944,40,40,40c22.056,0,40-17.944,40-40c0-2.208-0.208-4.448-0.616-6.696L248,432.952l32.616,16.352
			C280.208,451.552,280,453.792,280,456c0,22.056,17.944,40,40,40c22.056,0,40-17.944,40-40c0-19.328-14.088-35.704-32.552-39.24
			l-6.832-38.064l30.48-30.48C356.368,350.704,362.112,352,368,352c22.056,0,40-17.944,40-40C408,289.944,390.056,272,368,272z
			 M192,164.904l-32-10.664V16h32V164.904z M208,170.232V16h80v112h16V16h32v138.232l-32,10.664V144h-16v26.232l-40,13.336
			L208,170.232z M368,336c-4.888,0-9.616-1.496-13.664-4.32l-5.496-3.832l-45.448,45.456l10.528,58.632l6.552,0.136
			C333.448,432.32,344,443.056,344,456c0,13.232-10.768,24-24,24s-24-10.768-24-24c0-2.648,0.504-5.32,1.552-8.176L300,441.12
			l-52-26.072l-52,26.072l2.448,6.696C199.496,450.68,200,453.352,200,456c0,13.232-10.768,24-24,24s-24-10.768-24-24
			c0-12.944,10.552-23.68,23.528-23.936l6.552-0.136l10.528-58.632L147.16,327.84l-5.496,3.832C137.616,334.504,132.888,336,128,336
			c-13.232,0-24-10.768-24-24s10.768-24,24-24c11.24,0,20.84,7.672,23.344,18.664l1.704,7.464l60.32-10.968l27.584-55.168
			l-5.992-3.896C228.096,239.632,224,232.12,224,224c0-12.896,10.24-23.36,23-23.896l1,0.328l1-0.336
			c12.76,0.544,23,11.008,23,23.904c0,8.12-4.096,15.632-10.968,20.096l-5.992,3.896l27.584,55.168l60.32,10.968l1.704-7.464
			C347.16,295.672,356.76,288,368,288c13.232,0,24,10.768,24,24S381.232,336,368,336z"/>
	</g>
</g>
</svg>