<?xml version="1.0" encoding="iso-8859-1"?>
<!-- Uploaded to: SVG Repo, www.svgrepo.com, Generator: SVG Repo Mixer Tools -->
<svg fill="#000000" height="800px" width="800px" version="1.1" id="Layer_1" xmlns="http://www.w3.org/2000/svg" xmlns:xlink="http://www.w3.org/1999/xlink" 
	 viewBox="0 0 496 496" xml:space="preserve">
<g>
	<g>
		<g>
			<path d="M247.996,272c-48.52,0-88,39.48-88,88c0,48.52,39.48,88,88,88s88-39.48,88-88C335.996,311.48,296.516,272,247.996,272z
				 M247.996,432c-39.704,0-72-32.304-72-72s32.296-72,72-72s72,32.304,72,72S287.7,432,247.996,432z"/>
			<path d="M362.564,324.616c-2.208-7.184-5.072-14.096-8.528-20.648c4.424-14.136,0.752-29.512-9.872-40.136
				c-10.624-10.624-26.008-14.32-40.144-9.88c-6.552-3.456-13.472-6.312-20.64-8.52c-2.816-5.392-6.792-9.912-11.488-13.432h32.104
				c13.232,0,24-10.768,24-24v-8h16v-16h-18.8l96-184H283.148l-35.152,67.368L212.844,0H74.804l96,184h-18.808v16h16v8
				c0,13.232,10.768,24,24,24H224.1c-4.696,3.52-8.672,8.04-11.488,13.432c-7.168,2.208-14.088,5.064-20.64,8.52
				c-14.144-4.44-29.512-0.744-40.144,9.88c-10.616,10.624-14.296,26-9.872,40.136c-3.464,6.544-6.32,13.464-8.528,20.648
				c-13.144,6.864-21.432,20.352-21.432,35.384c0,15.032,8.288,28.52,21.432,35.384c2.208,7.184,5.072,14.096,8.528,20.64
				c-4.424,14.136-0.744,29.52,9.872,40.144c10.624,10.624,25.992,14.304,40.144,9.88c6.552,3.456,13.472,6.312,20.64,8.52
				C219.476,487.704,232.956,496,247.996,496c15.04,0,28.52-8.296,35.384-21.432c7.168-2.208,14.088-5.064,20.64-8.52
				c14.144,4.432,29.512,0.744,40.144-9.88c10.616-10.616,14.296-26,9.872-40.144c3.464-6.544,6.32-13.456,8.528-20.64
				c13.144-6.864,21.432-20.352,21.432-35.384C383.996,344.968,375.708,331.48,362.564,324.616z M394.804,16l-86.808,166.368
				l-25.456-48.8L348.668,16H394.804z M292.844,16h37.472L273.7,116.648l-16.688-31.984L292.844,16z M101.188,16H203.14l87.656,168
				H188.844L101.188,16z M191.996,216c-4.416,0-8-3.592-8-8v-8h128v8c0,4.408-3.584,8-8,8H191.996z M352.916,382.232l-3.68,1.48
				l-1.048,3.832c-2.312,8.424-5.632,16.448-9.856,23.848l-1.968,3.448l1.552,3.656c3.856,9.072,1.864,19.424-5.072,26.36
				c-6.952,6.944-17.312,8.912-26.36,5.072l-3.648-1.552l-3.448,1.968c-7.424,4.224-15.456,7.544-23.856,9.848l-3.832,1.048
				l-1.48,3.68c-3.672,9.16-12.392,15.08-22.224,15.08c-9.832,0-18.552-5.92-22.232-15.08l-1.48-3.68l-3.832-1.048
				c-8.408-2.312-16.44-5.624-23.856-9.848l-3.448-1.968l-3.648,1.552c-9.064,3.84-19.416,1.864-26.36-5.072
				c-6.936-6.944-8.928-17.288-5.072-26.36l1.552-3.656l-1.968-3.448c-4.224-7.4-7.544-15.424-9.856-23.848l-1.048-3.832l-3.68-1.48
				c-9.16-3.68-15.072-12.4-15.072-22.232c0-9.832,5.912-18.552,15.08-22.232l3.68-1.48l1.048-3.832
				c2.312-8.416,5.632-16.448,9.856-23.848l1.968-3.448l-1.552-3.656c-3.856-9.072-1.864-19.416,5.072-26.36
				c6.944-6.952,17.296-8.928,26.36-5.072l3.648,1.552l3.448-1.968c7.424-4.224,15.456-7.544,23.856-9.848l3.832-1.048l1.48-3.68
				c3.672-9.16,12.392-15.08,22.224-15.08c9.832,0,18.552,5.92,22.232,15.08l1.48,3.68l3.832,1.048
				c8.408,2.312,16.44,5.624,23.856,9.848l3.448,1.968l3.648-1.552c9.048-3.848,19.408-1.872,26.36,5.072
				c6.936,6.944,8.928,17.288,5.072,26.36l-1.552,3.656l1.968,3.448c4.224,7.408,7.544,15.432,9.856,23.848l1.048,3.832l3.68,1.48
				c9.16,3.68,15.072,12.4,15.072,22.232C367.996,369.832,362.084,378.552,352.916,382.232z"/>
		</g>
	</g>
</g>
</svg>