<?xml version="1.0" encoding="iso-8859-1"?>
<!-- Uploaded to: SVG Repo, www.svgrepo.com, Generator: SVG Repo Mixer Tools -->
<svg fill="#000000" height="800px" width="800px" version="1.1" id="Layer_1" xmlns="http://www.w3.org/2000/svg" xmlns:xlink="http://www.w3.org/1999/xlink" 
	 viewBox="0 0 495.856 495.856" xml:space="preserve">
<g>
	<g>
		<path d="M371.092,327.032l-20.736-61.304l-12.24,4.136L295.028,232h8.896c13.232,0,24-10.768,24-24v-8h16v-16h-18.8l96-184
			H283.076l-35.152,67.368L212.772,0H74.732l96,184h-18.808v16h16v8c0,13.232,10.768,24,24,24h24l-0.968,4.832l-61.304,20.744
			l4.144,12.248l-42.728,48.616l9.712,8.536l-12.696,63.464l12.68,2.536L145.5,454.28l12.24-4.136l48.616,42.728l8.536-9.712
			l63.464,12.696l2.536-12.672l61.304-20.744l-4.144-12.248l42.728-48.616l-9.712-8.536l12.696-63.464L371.092,327.032z
			 M345.86,302.376l13.376,39.544l-15.768,9.104c-1.008-10.776-3.832-21.008-8.112-30.456L345.86,302.376z M303.924,261.12
			l31.36,27.56l-9.152,15.848c-6.128-8.616-13.64-16.16-22.208-22.344V261.12z M394.724,16l-86.8,166.368l-10.976-21.04L372.772,16
			H394.724z M292.772,16h61.952l-66.8,128.04l-30.976-59.368L292.772,16z M101.116,16h21.952l26.976,51.696l14.184-7.4L141.124,16
			h61.952l87.648,168h-61.952L172.58,76.304l-14.184,7.4L210.724,184h-21.952L101.116,16z M191.924,216c-4.416,0-8-3.592-8-8v-8h128
			v8c0,4.408-3.584,8-8,8H191.924z M287.924,254.56v18.288c-9.456-4.36-19.688-7.296-30.48-8.36l-10.456-18.112L287.924,254.56z
			 M256.716,232h28.504l-4.256,4.848L256.716,232z M229.844,248.688l9.104,15.768c-10.776,1.008-21.008,3.832-30.456,8.112
			l-18.2-10.504L229.844,248.688z M176.612,272.64l15.848,9.144c-8.616,6.128-16.16,13.64-22.344,22.216h-21.072L176.612,272.64z
			 M142.476,320h18.288c-4.36,9.456-7.296,19.688-8.36,30.48l-18.112,10.464L142.476,320z M149.988,417.624l-13.376-39.544
			l15.768-9.104c1.008,10.776,3.832,21.008,8.112,30.456L149.988,417.624z M191.924,458.88l-31.36-27.56l9.152-15.848
			c6.128,8.616,13.64,16.16,22.208,22.344V458.88z M167.924,360c0-44.112,35.888-80,80-80s80,35.888,80,80s-35.888,80-80,80
			S167.924,404.112,167.924,360z M207.924,465.44v-18.28c9.456,4.36,19.688,7.296,30.48,8.36l10.456,18.112L207.924,465.44z
			 M266.004,471.312l-9.104-15.768c10.776-1.008,21.008-3.832,30.456-8.112l18.2,10.504L266.004,471.312z M319.228,447.36
			l-15.84-9.144c8.616-6.128,16.16-13.64,22.344-22.216h21.064L319.228,447.36z M353.372,400h-18.288
			c4.36-9.456,7.296-19.688,8.36-30.48l18.112-10.456L353.372,400z"/>
	</g>
</g>
</svg>