<?xml version="1.0" encoding="iso-8859-1"?>
<!-- Uploaded to: SVG Repo, www.svgrepo.com, Generator: SVG Repo Mixer Tools -->
<svg fill="#000000" height="800px" width="800px" version="1.1" id="Layer_1" xmlns="http://www.w3.org/2000/svg" xmlns:xlink="http://www.w3.org/1999/xlink" 
	 viewBox="0 0 494.32 494.32" xml:space="preserve">
<g>
	<g>
		<g>
			<path d="M286.848,187.064C360.36,169.16,415.16,102.944,415.16,24V0h-16v24c0,70.792-48.712,130.256-114.328,147.08
				c-5.408-15.696-20.16-27.08-37.672-27.08c-22.056,0-40,17.944-40,40c0,20.44,15.48,37.16,35.296,39.528l-40.664,81.32
				l-99.088,18.016l71.84,71.84l-17.88,99.616l90.496-45.368l90.496,45.36l-17.88-99.616l71.84-71.84l-99.088-18.016l-40.664-81.32
				C270.664,221.28,285.376,206.088,286.848,187.064z M204,320.704l21.32,25.584l-68.232-17.056L204,320.704z M145.24,342.768
				l79,19.752l-39.504,19.752L145.24,342.768z M190.32,397.368l33.528-16.768l-41.808,62.872L190.32,397.368z M239.16,435.064
				l-48.456,24.288l48.456-72.872V435.064z M239.16,337.904l-22.504-27l22.504-45.016V337.904z M309.584,382.264l-39.504-19.752
				l79-19.752L309.584,382.264z M312.272,443.464l-41.808-62.872l33.528,16.768L312.272,443.464z M337.232,329.232L269,346.288
				l21.32-25.584L337.232,329.232z M255.16,265.888l22.504,45.008l-22.504,27.008V265.888z M255.16,386.48l48.456,72.864
				l-48.456-24.28V386.48z M247.16,160c9.752,0,18.128,5.864,21.88,14.24c-7.168,1.04-14.432,1.76-21.88,1.76
				c-7.32,0-14.624-0.712-21.88-1.76C229.032,165.864,237.408,160,247.16,160z M247.16,208c-11.072,0-20.32-7.576-23.08-17.784
				c7.656,1.056,15.36,1.784,23.08,1.784c7.848,0,15.512-0.728,23.08-1.776C267.48,200.432,258.232,208,247.16,208z"/>
			<path d="M188.352,181.216l5.608-14.984c-59.096-22.12-98.8-79.28-98.8-142.232V0h-16v24
				C79.16,93.592,123.04,156.768,188.352,181.216z"/>
		</g>
	</g>
</g>
</svg>