<?xml version="1.0" encoding="iso-8859-1"?>
<!-- Uploaded to: SVG Repo, www.svgrepo.com, Generator: SVG Repo Mixer Tools -->
<svg fill="#000000" height="800px" width="800px" version="1.1" id="Layer_1" xmlns="http://www.w3.org/2000/svg" xmlns:xlink="http://www.w3.org/1999/xlink" 
	 viewBox="0 0 496 496" xml:space="preserve">
<g>
	<g>
		<g>
			<path d="M424,176C424,78.952,345.048,0,248,0S72,78.952,72,176c0,42.511,15.151,81.549,40.334,112H112v208h34.264L248,433.392
				L349.736,496H384V288h-0.334C408.849,257.549,424,218.511,424,176z M248,16c88.224,0,160,71.776,160,160s-71.776,160-160,160
				S88,264.224,88,176S159.776,16,248,16z M184,339.952v114.04l-16,9.846V332.745C173.189,335.404,178.529,337.809,184,339.952z
				 M141.736,480H128V304.62c7.43,6.937,15.458,13.239,24,18.82v150.244L141.736,480z M200,444.146v-98.799
				c15.264,4.332,31.366,6.653,48,6.653s32.736-2.321,48-6.653v98.799l-48-29.538L200,444.146z M354.264,480L344,473.684V448h-16
				v15.838l-16-9.846v-114.04c5.47-2.143,10.811-4.548,16-7.207V432h16V323.44c8.542-5.581,16.57-11.883,24-18.82V480H354.264z"/>
			<path d="M248,312c74.992,0,136-61.008,136-136c0-0.056-0.004-0.11-0.004-0.165C389.001,169.173,392,160.925,392,152
				c0-15.559-8.935-29.061-21.938-35.672C347.31,69.867,299.75,40,248,40c-51.748,0-99.306,29.865-122.052,76.323
				C112.94,122.932,104,136.437,104,152c0,8.979,2.982,17.273,8.001,23.954c0,0.015-0.001,0.03-0.001,0.046
				C112,250.992,173.008,312,248,312z M248,296c-61.794,0-112.822-46.952-119.3-107.054c4.845,2.017,10.166,3.11,15.74,3.054
				l34.288,80h138.544l34.288-80c5.548,0.059,10.878-1.057,15.746-3.112C360.856,249.018,309.814,296,248,296z M248,56
				c41.31,0,79.611,21.597,101.401,56.094C328.553,113.439,312,130.818,312,152c0,2.488,0.224,4.936,0.672,7.344l-20.616,6.872
				l-19.424-38.84C282.264,119.88,288,108.44,288,96C288,73.944,270.056,56,248,56c-22.056,0-40,17.944-40,40
				c0,12.44,5.736,23.88,15.368,31.376l-19.424,38.84l-20.616-6.872c0.448-2.408,0.672-4.856,0.672-7.344
				c0-21.182-16.553-38.561-37.401-39.906C168.389,77.597,206.69,56,248,56z M144,128c13.232,0,24,10.768,24,24
				c0,3.24-0.64,6.4-1.896,9.368l-3.368,7.968l49.32,16.44l32.416-64.84l-7.144-3.576C229.112,113.232,224,105.048,224,96
				c0-13.232,10.768-24,24-24s24,10.768,24,24c0,9.048-5.112,17.232-13.328,21.368l-7.144,3.576l32.416,64.84l49.32-16.44
				l-3.368-7.968C328.64,158.4,328,155.24,328,152c0-13.232,10.768-24,24-24s24,10.768,24,24s-10.768,24-24,24
				c-1.408,0-2.76-0.2-4.104-0.432l-6.232-1.088L306.728,256H189.272l-34.936-81.528l-6.232,1.088C146.76,175.8,145.408,176,144,176
				c-13.232,0-24-10.768-24-24S130.768,128,144,128z"/>
			<path d="M248,248c17.648,0,32-14.352,32-32s-14.352-32-32-32s-32,14.352-32,32S230.352,248,248,248z M248,200
				c8.824,0,16,7.176,16,16c0,8.824-7.176,16-16,16c-8.824,0-16-7.176-16-16C232,207.176,239.176,200,248,200z"/>
		</g>
	</g>
</g>
</svg>